<svg width="22" height="25" viewBox="0 0 22 25" fill="none" xmlns="http://www.w3.org/2000/svg">
<g id="elements">
<path id="Vector" d="M14.1667 1.49976L14.7646 2.61753C15.1689 3.37322 15.371 3.75107 15.2374 3.91289C15.1037 4.07471 14.6635 3.94402 13.7831 3.68264C12.9029 3.42131 11.9684 3.28071 11 3.28071C5.75329 3.28071 1.5 7.40822 1.5 12.4998C1.5 14.1789 1.96262 15.7533 2.77093 17.1093M7.83333 23.4998L7.23536 22.382C6.83108 21.6263 6.62894 21.2484 6.7626 21.0866C6.89627 20.9248 7.33649 21.0555 8.21689 21.3169C9.09709 21.5782 10.0316 21.7188 11 21.7188C16.2467 21.7188 20.5 17.5913 20.5 12.4998C20.5 10.8206 20.0374 9.24623 19.2291 7.89023" stroke="#141B34" stroke-width="1.5" stroke-linecap="round" stroke-linejoin="round"/>
</g>
</svg>
