<svg width="22" height="22" viewBox="0 0 22 22" fill="none" xmlns="http://www.w3.org/2000/svg">
<path d="M7.5 3.125H7.325C5.85486 3.125 5.11979 3.125 4.55827 3.41111C4.06435 3.66278 3.66278 4.06435 3.41111 4.55827C3.125 5.11979 3.125 5.85486 3.125 7.325V7.5M7.5 18.875H7.325C5.85486 18.875 5.11979 18.875 4.55827 18.5889C4.06435 18.3372 3.66278 17.9357 3.41111 17.4417C3.125 16.8802 3.125 16.1451 3.125 14.675V14.5M18.875 7.5V7.325C18.875 5.85486 18.875 5.11979 18.5889 4.55828C18.3372 4.06435 17.9357 3.66278 17.4417 3.41111C16.8802 3.125 16.1451 3.125 14.675 3.125H14.5M18.875 14.5V14.675C18.875 16.1451 18.875 16.8802 18.5889 17.4417C18.3372 17.9357 17.9357 18.3372 17.4417 18.5889C16.8802 18.875 16.1451 18.875 14.675 18.875H14.5M3.125 11H3.13375M7.0625 11H7.07125M14.9375 11H14.9463M11 11H11.0088M18.875 11H18.8838" stroke="white" stroke-width="1.75" stroke-linecap="round" stroke-linejoin="round"/>
</svg>
